<svg width="24" height="24" viewBox="0 0 24 24" fill="none" xmlns="http://www.w3.org/2000/svg">
<path d="M13.407 5.05999C14.017 4.93699 14.634 4.98099 15.064 5.40299L15.199 5.55299C15.476 5.91399 15.515 6.34299 15.407 6.75699C15.292 7.19699 15.01 7.64399 14.673 8.07099C13.993 8.93099 12.933 9.89999 11.925 10.831C10.894 11.783 9.915 12.698 9.319 13.493C9.019 13.893 8.853 14.217 8.802 14.463C8.758 14.673 8.799 14.803 8.922 14.923L8.987 14.975C9.059 15.019 9.154 15.037 9.3 15.014C9.517 14.98 9.805 14.859 10.166 14.636C10.886 14.191 11.727 13.453 12.611 12.67C13.473 11.907 14.379 11.099 15.181 10.594C15.581 10.342 15.998 10.137 16.402 10.067C16.829 9.99299 17.272 10.069 17.625 10.413L17.727 10.525C17.947 10.796 18.023 11.118 17.993 11.443C17.961 11.787 17.81 12.127 17.629 12.436C17.266 13.053 16.666 13.732 16.114 14.358C15.54 15.009 15.014 15.609 14.711 16.125C14.56 16.382 14.493 16.574 14.481 16.706C14.471 16.812 14.493 16.869 14.553 16.926L14.607 16.966C14.681 17.004 14.821 17.028 15.081 16.935C15.437 16.807 15.934 16.479 16.546 15.835C16.6388 15.7463 16.7621 15.6966 16.8904 15.6963C17.0188 15.696 17.1424 15.7451 17.2355 15.8334C17.3287 15.9216 17.3844 16.0424 17.391 16.1706C17.3976 16.2988 17.3546 16.4246 17.271 16.522C16.605 17.224 15.98 17.675 15.418 17.876C14.883 18.068 14.338 18.049 13.933 17.713L13.853 17.642C13.7162 17.5104 13.6117 17.349 13.5477 17.1703C13.4837 16.9916 13.4619 16.8005 13.484 16.612C13.517 16.268 13.667 15.928 13.848 15.619C14.211 15.002 14.812 14.322 15.364 13.696C15.938 13.045 16.464 12.446 16.766 11.93C16.918 11.672 16.986 11.481 16.998 11.349C17.005 11.269 16.994 11.217 16.963 11.172L16.925 11.127C16.855 11.059 16.763 11.019 16.572 11.052C16.359 11.089 16.072 11.213 15.714 11.44C14.997 11.891 14.159 12.634 13.274 13.418C12.412 14.182 11.5 14.988 10.69 15.488C10.286 15.737 9.864 15.938 9.453 16.002C9.073 16.062 8.686 16.002 8.358 15.755L8.222 15.637C7.82 15.243 7.72 14.75 7.823 14.257C7.92 13.797 8.19 13.334 8.519 12.894C9.182 12.009 10.237 11.029 11.247 10.096C12.28 9.14199 13.27 8.23399 13.889 7.45099C14.199 7.05799 14.378 6.74099 14.439 6.50499C14.479 6.35299 14.467 6.25899 14.422 6.18499L14.365 6.11599C14.283 6.03599 14.081 5.94399 13.605 6.03999C13.137 6.13399 12.514 6.39199 11.742 6.84299C10.205 7.74099 8.19 9.33899 5.849 11.629C5.75379 11.7196 5.62671 11.7692 5.49526 11.7668C5.36382 11.7644 5.23859 11.7104 5.14669 11.6164C5.05479 11.5224 5.0036 11.396 5.00422 11.2645C5.00485 11.1331 5.05722 11.0071 5.15 10.914C7.52 8.59499 9.6 6.93399 11.237 5.97899C12.052 5.50299 12.787 5.18599 13.407 5.05999Z" fill="black"/>
</svg>
