<svg width="24" height="24" viewBox="0 0 24 24" fill="none" xmlns="http://www.w3.org/2000/svg">
<path d="M13.631 6.01801C13.7418 6.04835 13.8388 6.11591 13.9056 6.20934C13.9724 6.30277 14.0051 6.41636 13.998 6.53101L13.982 6.63101L10.982 17.631L10.946 17.726C10.8914 17.8389 10.7963 17.9271 10.6797 17.9732C10.563 18.0193 10.4334 18.0198 10.3163 17.9748C10.1993 17.9297 10.1035 17.8423 10.0479 17.73C9.99222 17.6176 9.98085 17.4884 10.016 17.368L13.016 6.36801L13.053 6.27301C13.1053 6.17048 13.1913 6.08912 13.2966 6.04266C13.4019 5.99621 13.52 5.9875 13.631 6.01801ZM8.224 8.58201C8.32026 8.51953 8.43506 8.492 8.54919 8.50401C8.66332 8.51602 8.76987 8.56685 8.85102 8.648C8.93216 8.72915 8.98299 8.83569 8.99501 8.94982C9.00702 9.06396 8.97948 9.17875 8.917 9.27501L8.853 9.35401L6.206 12L8.853 14.646C8.90076 14.6921 8.93885 14.7473 8.96505 14.8083C8.99126 14.8693 9.00505 14.9349 9.00563 15.0013C9.0062 15.0677 8.99355 15.1335 8.96841 15.195C8.94327 15.2564 8.90614 15.3123 8.8592 15.3592C8.81225 15.4062 8.75643 15.4433 8.69498 15.4684C8.63353 15.4936 8.56769 15.5062 8.5013 15.5056C8.43491 15.5051 8.3693 15.4913 8.3083 15.4651C8.2473 15.4389 8.19212 15.4008 8.146 15.353L5.146 12.353C5.05226 12.2592 4.99961 12.1321 4.99961 11.9995C4.99961 11.8669 5.05226 11.7398 5.146 11.646L8.146 8.64601L8.224 8.58201ZM15.146 8.64601C15.2398 8.55228 15.3669 8.49962 15.4995 8.49962C15.6321 8.49962 15.7592 8.55228 15.853 8.64601L18.853 11.646C18.9467 11.7398 18.9994 11.8669 18.9994 11.9995C18.9994 12.1321 18.9467 12.2592 18.853 12.353L15.853 15.353L15.775 15.418C15.6789 15.4823 15.5634 15.5113 15.4483 15.5001C15.3332 15.4888 15.2255 15.438 15.1437 15.3562C15.0618 15.2745 15.0109 15.1669 14.9994 15.0518C14.988 14.9367 15.0168 14.8212 15.081 14.725L15.146 14.646L17.792 12L15.146 9.35401C15.0523 9.26025 14.9996 9.13309 14.9996 9.00051C14.9996 8.86793 15.0523 8.74078 15.146 8.64701" fill="black"/>
</svg>
